<mxfile host="app.diagrams.net" agent="Mozilla/5.0 (Windows NT 10.0; Win64; x64) AppleWebKit/537.36 (KHTML, like Gecko) Chrome/131.0.0.0 Safari/537.36" version="25.0.3">
  <diagram name="Page-1" id="Y0tSUlVhwW7hxI0-VPxJ">
    <mxGraphModel dx="174" dy="533" grid="1" gridSize="10" guides="1" tooltips="1" connect="1" arrows="1" fold="1" page="1" pageScale="1" pageWidth="850" pageHeight="1100" math="0" shadow="0">
      <root>
        <mxCell id="0" />
        <mxCell id="1" parent="0" />
        <mxCell id="yQQKOV0Bb0ya3bEa-6g1-1" value="d0" style="rounded=0;whiteSpace=wrap;html=1;container=0;fillColor=#f5f5f5;fontColor=#333333;strokeColor=#666666;" parent="1" vertex="1">
          <mxGeometry x="1160" y="360" width="40" height="40" as="geometry" />
        </mxCell>
        <mxCell id="yQQKOV0Bb0ya3bEa-6g1-2" value="d1" style="rounded=0;whiteSpace=wrap;html=1;container=0;fillColor=#f5f5f5;fontColor=#333333;strokeColor=#666666;" parent="1" vertex="1">
          <mxGeometry x="1200" y="360" width="40" height="40" as="geometry" />
        </mxCell>
        <mxCell id="yQQKOV0Bb0ya3bEa-6g1-3" value="d2" style="rounded=0;whiteSpace=wrap;html=1;container=0;fillColor=#f5f5f5;fontColor=#333333;strokeColor=#666666;" parent="1" vertex="1">
          <mxGeometry x="1240" y="360" width="40" height="40" as="geometry" />
        </mxCell>
        <mxCell id="yQQKOV0Bb0ya3bEa-6g1-4" value="d3" style="rounded=0;whiteSpace=wrap;html=1;container=0;fillColor=#f5f5f5;fontColor=#333333;strokeColor=#666666;" parent="1" vertex="1">
          <mxGeometry x="1280" y="360" width="40" height="40" as="geometry" />
        </mxCell>
        <mxCell id="yQQKOV0Bb0ya3bEa-6g1-5" value="d4" style="rounded=0;whiteSpace=wrap;html=1;container=0;fillColor=#f5f5f5;fontColor=#333333;strokeColor=#666666;" parent="1" vertex="1">
          <mxGeometry x="1320" y="360" width="40" height="40" as="geometry" />
        </mxCell>
        <mxCell id="yQQKOV0Bb0ya3bEa-6g1-6" value="d5" style="rounded=0;whiteSpace=wrap;html=1;container=0;fillColor=#f5f5f5;fontColor=#333333;strokeColor=#666666;" parent="1" vertex="1">
          <mxGeometry x="1360" y="360" width="40" height="40" as="geometry" />
        </mxCell>
        <mxCell id="yQQKOV0Bb0ya3bEa-6g1-7" value="d6" style="rounded=0;whiteSpace=wrap;html=1;container=0;fillColor=#fff2cc;strokeColor=#d6b656;" parent="1" vertex="1">
          <mxGeometry x="1400" y="360" width="40" height="40" as="geometry" />
        </mxCell>
        <mxCell id="yQQKOV0Bb0ya3bEa-6g1-8" value="d7" style="rounded=0;whiteSpace=wrap;html=1;container=0;fillColor=#f8cecc;strokeColor=#b85450;" parent="1" vertex="1">
          <mxGeometry x="1440" y="360" width="40" height="40" as="geometry" />
        </mxCell>
        <mxCell id="yQQKOV0Bb0ya3bEa-6g1-9" value="d8" style="rounded=0;whiteSpace=wrap;html=1;container=0;fillColor=#f8cecc;strokeColor=#b85450;" parent="1" vertex="1">
          <mxGeometry x="1480" y="360" width="40" height="40" as="geometry" />
        </mxCell>
        <mxCell id="yQQKOV0Bb0ya3bEa-6g1-82" value="d9" style="rounded=0;whiteSpace=wrap;html=1;container=0;fillColor=#f8cecc;strokeColor=#b85450;" parent="1" vertex="1">
          <mxGeometry x="1520" y="360" width="40" height="40" as="geometry" />
        </mxCell>
        <mxCell id="yQQKOV0Bb0ya3bEa-6g1-83" value="d10" style="rounded=0;whiteSpace=wrap;html=1;container=0;fillColor=#f8cecc;strokeColor=#b85450;" parent="1" vertex="1">
          <mxGeometry x="1560" y="360" width="40" height="40" as="geometry" />
        </mxCell>
        <mxCell id="yQQKOV0Bb0ya3bEa-6g1-84" value="d11" style="rounded=0;whiteSpace=wrap;html=1;container=0;fillColor=#f8cecc;strokeColor=#b85450;" parent="1" vertex="1">
          <mxGeometry x="1600" y="360" width="40" height="40" as="geometry" />
        </mxCell>
        <mxCell id="yQQKOV0Bb0ya3bEa-6g1-85" value="d12" style="rounded=0;whiteSpace=wrap;html=1;container=0;fillColor=#f8cecc;strokeColor=#b85450;" parent="1" vertex="1">
          <mxGeometry x="1640" y="360" width="40" height="40" as="geometry" />
        </mxCell>
        <mxCell id="yQQKOV0Bb0ya3bEa-6g1-86" value="d13" style="rounded=0;whiteSpace=wrap;html=1;container=0;fillColor=#f5f5f5;fontColor=#333333;strokeColor=#666666;" parent="1" vertex="1">
          <mxGeometry x="1160" y="400" width="40" height="40" as="geometry" />
        </mxCell>
        <mxCell id="yQQKOV0Bb0ya3bEa-6g1-87" value="d14" style="rounded=0;whiteSpace=wrap;html=1;container=0;fillColor=#f5f5f5;fontColor=#333333;strokeColor=#666666;" parent="1" vertex="1">
          <mxGeometry x="1200" y="400" width="40" height="40" as="geometry" />
        </mxCell>
        <mxCell id="yQQKOV0Bb0ya3bEa-6g1-88" value="d15" style="rounded=0;whiteSpace=wrap;html=1;container=0;fillColor=#f5f5f5;fontColor=#333333;strokeColor=#666666;" parent="1" vertex="1">
          <mxGeometry x="1240" y="400" width="40" height="40" as="geometry" />
        </mxCell>
        <mxCell id="yQQKOV0Bb0ya3bEa-6g1-89" value="d16" style="rounded=0;whiteSpace=wrap;html=1;container=0;fillColor=#f5f5f5;fontColor=#333333;strokeColor=#666666;" parent="1" vertex="1">
          <mxGeometry x="1280" y="400" width="40" height="40" as="geometry" />
        </mxCell>
        <mxCell id="yQQKOV0Bb0ya3bEa-6g1-90" value="d17" style="rounded=0;whiteSpace=wrap;html=1;container=0;fillColor=#f5f5f5;fontColor=#333333;strokeColor=#666666;" parent="1" vertex="1">
          <mxGeometry x="1320" y="400" width="40" height="40" as="geometry" />
        </mxCell>
        <mxCell id="yQQKOV0Bb0ya3bEa-6g1-91" value="d18" style="rounded=0;whiteSpace=wrap;html=1;container=0;fillColor=#f5f5f5;fontColor=#333333;strokeColor=#666666;" parent="1" vertex="1">
          <mxGeometry x="1360" y="400" width="40" height="40" as="geometry" />
        </mxCell>
        <mxCell id="yQQKOV0Bb0ya3bEa-6g1-92" value="d19" style="rounded=0;whiteSpace=wrap;html=1;container=0;fillColor=#dae8fc;strokeColor=#6c8ebf;" parent="1" vertex="1">
          <mxGeometry x="1400" y="400" width="40" height="40" as="geometry" />
        </mxCell>
        <mxCell id="yQQKOV0Bb0ya3bEa-6g1-93" value="d20" style="rounded=0;whiteSpace=wrap;html=1;container=0;fillColor=#f8cecc;strokeColor=#b85450;" parent="1" vertex="1">
          <mxGeometry x="1440" y="400" width="40" height="40" as="geometry" />
        </mxCell>
        <mxCell id="yQQKOV0Bb0ya3bEa-6g1-94" value="d21" style="rounded=0;whiteSpace=wrap;html=1;container=0;fillColor=#f8cecc;strokeColor=#b85450;" parent="1" vertex="1">
          <mxGeometry x="1480" y="400" width="40" height="40" as="geometry" />
        </mxCell>
        <mxCell id="yQQKOV0Bb0ya3bEa-6g1-95" value="d22" style="rounded=0;whiteSpace=wrap;html=1;container=0;fillColor=#f8cecc;strokeColor=#b85450;" parent="1" vertex="1">
          <mxGeometry x="1520" y="400" width="40" height="40" as="geometry" />
        </mxCell>
        <mxCell id="yQQKOV0Bb0ya3bEa-6g1-96" value="d23" style="rounded=0;whiteSpace=wrap;html=1;container=0;fillColor=#f8cecc;strokeColor=#b85450;" parent="1" vertex="1">
          <mxGeometry x="1560" y="400" width="40" height="40" as="geometry" />
        </mxCell>
        <mxCell id="yQQKOV0Bb0ya3bEa-6g1-97" value="d24" style="rounded=0;whiteSpace=wrap;html=1;container=0;fillColor=#f8cecc;strokeColor=#b85450;" parent="1" vertex="1">
          <mxGeometry x="1600" y="400" width="40" height="40" as="geometry" />
        </mxCell>
        <mxCell id="yQQKOV0Bb0ya3bEa-6g1-98" value="d25" style="rounded=0;whiteSpace=wrap;html=1;container=0;fillColor=#f8cecc;strokeColor=#b85450;" parent="1" vertex="1">
          <mxGeometry x="1640" y="400" width="40" height="40" as="geometry" />
        </mxCell>
        <mxCell id="yQQKOV0Bb0ya3bEa-6g1-99" value="d26" style="rounded=0;whiteSpace=wrap;html=1;container=0;fillColor=#f5f5f5;fontColor=#333333;strokeColor=#666666;" parent="1" vertex="1">
          <mxGeometry x="1160" y="440" width="40" height="40" as="geometry" />
        </mxCell>
        <mxCell id="yQQKOV0Bb0ya3bEa-6g1-100" value="d27" style="rounded=0;whiteSpace=wrap;html=1;container=0;fillColor=#f5f5f5;fontColor=#333333;strokeColor=#666666;" parent="1" vertex="1">
          <mxGeometry x="1200" y="440" width="40" height="40" as="geometry" />
        </mxCell>
        <mxCell id="yQQKOV0Bb0ya3bEa-6g1-101" value="d28" style="rounded=0;whiteSpace=wrap;html=1;container=0;fillColor=#f5f5f5;fontColor=#333333;strokeColor=#666666;" parent="1" vertex="1">
          <mxGeometry x="1240" y="440" width="40" height="40" as="geometry" />
        </mxCell>
        <mxCell id="yQQKOV0Bb0ya3bEa-6g1-102" value="d29" style="rounded=0;whiteSpace=wrap;html=1;container=0;fillColor=#f5f5f5;fontColor=#333333;strokeColor=#666666;" parent="1" vertex="1">
          <mxGeometry x="1280" y="440" width="40" height="40" as="geometry" />
        </mxCell>
        <mxCell id="yQQKOV0Bb0ya3bEa-6g1-103" value="d30" style="rounded=0;whiteSpace=wrap;html=1;container=0;fillColor=#f5f5f5;fontColor=#333333;strokeColor=#666666;" parent="1" vertex="1">
          <mxGeometry x="1320" y="440" width="40" height="40" as="geometry" />
        </mxCell>
        <mxCell id="yQQKOV0Bb0ya3bEa-6g1-104" value="d31" style="rounded=0;whiteSpace=wrap;html=1;container=0;fillColor=#f5f5f5;fontColor=#333333;strokeColor=#666666;" parent="1" vertex="1">
          <mxGeometry x="1360" y="440" width="40" height="40" as="geometry" />
        </mxCell>
        <mxCell id="yQQKOV0Bb0ya3bEa-6g1-105" value="d32" style="rounded=0;whiteSpace=wrap;html=1;container=0;fillColor=#dae8fc;strokeColor=#6c8ebf;" parent="1" vertex="1">
          <mxGeometry x="1400" y="440" width="40" height="40" as="geometry" />
        </mxCell>
        <mxCell id="yQQKOV0Bb0ya3bEa-6g1-106" value="d33" style="rounded=0;whiteSpace=wrap;html=1;container=0;fillColor=#f8cecc;strokeColor=#b85450;" parent="1" vertex="1">
          <mxGeometry x="1440" y="440" width="40" height="40" as="geometry" />
        </mxCell>
        <mxCell id="yQQKOV0Bb0ya3bEa-6g1-107" value="d34" style="rounded=0;whiteSpace=wrap;html=1;container=0;fillColor=#f8cecc;strokeColor=#b85450;" parent="1" vertex="1">
          <mxGeometry x="1480" y="440" width="40" height="40" as="geometry" />
        </mxCell>
        <mxCell id="yQQKOV0Bb0ya3bEa-6g1-108" value="d35" style="rounded=0;whiteSpace=wrap;html=1;container=0;fillColor=#f8cecc;strokeColor=#b85450;" parent="1" vertex="1">
          <mxGeometry x="1520" y="440" width="40" height="40" as="geometry" />
        </mxCell>
        <mxCell id="yQQKOV0Bb0ya3bEa-6g1-109" value="d36" style="rounded=0;whiteSpace=wrap;html=1;container=0;fillColor=#f8cecc;strokeColor=#b85450;" parent="1" vertex="1">
          <mxGeometry x="1560" y="440" width="40" height="40" as="geometry" />
        </mxCell>
        <mxCell id="yQQKOV0Bb0ya3bEa-6g1-110" value="d37" style="rounded=0;whiteSpace=wrap;html=1;container=0;fillColor=#f8cecc;strokeColor=#b85450;" parent="1" vertex="1">
          <mxGeometry x="1600" y="440" width="40" height="40" as="geometry" />
        </mxCell>
        <mxCell id="yQQKOV0Bb0ya3bEa-6g1-111" value="d38" style="rounded=0;whiteSpace=wrap;html=1;container=0;fillColor=#f8cecc;strokeColor=#b85450;" parent="1" vertex="1">
          <mxGeometry x="1640" y="440" width="40" height="40" as="geometry" />
        </mxCell>
        <mxCell id="yQQKOV0Bb0ya3bEa-6g1-112" value="d39" style="rounded=0;whiteSpace=wrap;html=1;container=0;fillColor=#f5f5f5;fontColor=#333333;strokeColor=#666666;" parent="1" vertex="1">
          <mxGeometry x="1160" y="480" width="40" height="40" as="geometry" />
        </mxCell>
        <mxCell id="yQQKOV0Bb0ya3bEa-6g1-113" value="d40" style="rounded=0;whiteSpace=wrap;html=1;container=0;fillColor=#f5f5f5;fontColor=#333333;strokeColor=#666666;" parent="1" vertex="1">
          <mxGeometry x="1200" y="480" width="40" height="40" as="geometry" />
        </mxCell>
        <mxCell id="yQQKOV0Bb0ya3bEa-6g1-114" value="d41" style="rounded=0;whiteSpace=wrap;html=1;container=0;fillColor=#f5f5f5;fontColor=#333333;strokeColor=#666666;" parent="1" vertex="1">
          <mxGeometry x="1240" y="480" width="40" height="40" as="geometry" />
        </mxCell>
        <mxCell id="yQQKOV0Bb0ya3bEa-6g1-115" value="d42" style="rounded=0;whiteSpace=wrap;html=1;container=0;fillColor=#f5f5f5;fontColor=#333333;strokeColor=#666666;" parent="1" vertex="1">
          <mxGeometry x="1280" y="480" width="40" height="40" as="geometry" />
        </mxCell>
        <mxCell id="yQQKOV0Bb0ya3bEa-6g1-116" value="d43" style="rounded=0;whiteSpace=wrap;html=1;container=0;fillColor=#f5f5f5;fontColor=#333333;strokeColor=#666666;" parent="1" vertex="1">
          <mxGeometry x="1320" y="480" width="40" height="40" as="geometry" />
        </mxCell>
        <mxCell id="yQQKOV0Bb0ya3bEa-6g1-117" value="d44" style="rounded=0;whiteSpace=wrap;html=1;container=0;fillColor=#f5f5f5;fontColor=#333333;strokeColor=#666666;" parent="1" vertex="1">
          <mxGeometry x="1360" y="480" width="40" height="40" as="geometry" />
        </mxCell>
        <mxCell id="yQQKOV0Bb0ya3bEa-6g1-118" value="d45" style="rounded=0;whiteSpace=wrap;html=1;container=0;fillColor=#dae8fc;strokeColor=#6c8ebf;" parent="1" vertex="1">
          <mxGeometry x="1400" y="480" width="40" height="40" as="geometry" />
        </mxCell>
        <mxCell id="yQQKOV0Bb0ya3bEa-6g1-119" value="d46" style="rounded=0;whiteSpace=wrap;html=1;container=0;fillColor=#f8cecc;strokeColor=#b85450;" parent="1" vertex="1">
          <mxGeometry x="1440" y="480" width="40" height="40" as="geometry" />
        </mxCell>
        <mxCell id="yQQKOV0Bb0ya3bEa-6g1-120" value="d47" style="rounded=0;whiteSpace=wrap;html=1;container=0;fillColor=#f8cecc;strokeColor=#b85450;" parent="1" vertex="1">
          <mxGeometry x="1480" y="480" width="40" height="40" as="geometry" />
        </mxCell>
        <mxCell id="yQQKOV0Bb0ya3bEa-6g1-121" value="d48" style="rounded=0;whiteSpace=wrap;html=1;container=0;fillColor=#f8cecc;strokeColor=#b85450;" parent="1" vertex="1">
          <mxGeometry x="1520" y="480" width="40" height="40" as="geometry" />
        </mxCell>
        <mxCell id="yQQKOV0Bb0ya3bEa-6g1-122" value="d49" style="rounded=0;whiteSpace=wrap;html=1;container=0;fillColor=#f8cecc;strokeColor=#b85450;" parent="1" vertex="1">
          <mxGeometry x="1560" y="480" width="40" height="40" as="geometry" />
        </mxCell>
        <mxCell id="yQQKOV0Bb0ya3bEa-6g1-123" value="d50" style="rounded=0;whiteSpace=wrap;html=1;container=0;fillColor=#f8cecc;strokeColor=#b85450;" parent="1" vertex="1">
          <mxGeometry x="1600" y="480" width="40" height="40" as="geometry" />
        </mxCell>
        <mxCell id="yQQKOV0Bb0ya3bEa-6g1-124" value="d51" style="rounded=0;whiteSpace=wrap;html=1;container=0;fillColor=#f8cecc;strokeColor=#b85450;" parent="1" vertex="1">
          <mxGeometry x="1640" y="480" width="40" height="40" as="geometry" />
        </mxCell>
        <mxCell id="yQQKOV0Bb0ya3bEa-6g1-125" value="d52" style="rounded=0;whiteSpace=wrap;html=1;container=0;fillColor=#f5f5f5;fontColor=#333333;strokeColor=#666666;" parent="1" vertex="1">
          <mxGeometry x="1160" y="520" width="40" height="40" as="geometry" />
        </mxCell>
        <mxCell id="yQQKOV0Bb0ya3bEa-6g1-126" value="d53" style="rounded=0;whiteSpace=wrap;html=1;container=0;fillColor=#f5f5f5;fontColor=#333333;strokeColor=#666666;" parent="1" vertex="1">
          <mxGeometry x="1200" y="520" width="40" height="40" as="geometry" />
        </mxCell>
        <mxCell id="yQQKOV0Bb0ya3bEa-6g1-127" value="d54" style="rounded=0;whiteSpace=wrap;html=1;container=0;fillColor=#f5f5f5;fontColor=#333333;strokeColor=#666666;" parent="1" vertex="1">
          <mxGeometry x="1240" y="520" width="40" height="40" as="geometry" />
        </mxCell>
        <mxCell id="yQQKOV0Bb0ya3bEa-6g1-128" value="d55" style="rounded=0;whiteSpace=wrap;html=1;container=0;fillColor=#f5f5f5;fontColor=#333333;strokeColor=#666666;" parent="1" vertex="1">
          <mxGeometry x="1280" y="520" width="40" height="40" as="geometry" />
        </mxCell>
        <mxCell id="yQQKOV0Bb0ya3bEa-6g1-129" value="d56" style="rounded=0;whiteSpace=wrap;html=1;container=0;fillColor=#f5f5f5;fontColor=#333333;strokeColor=#666666;" parent="1" vertex="1">
          <mxGeometry x="1320" y="520" width="40" height="40" as="geometry" />
        </mxCell>
        <mxCell id="yQQKOV0Bb0ya3bEa-6g1-130" value="d57" style="rounded=0;whiteSpace=wrap;html=1;container=0;fillColor=#f5f5f5;fontColor=#333333;strokeColor=#666666;" parent="1" vertex="1">
          <mxGeometry x="1360" y="520" width="40" height="40" as="geometry" />
        </mxCell>
        <mxCell id="yQQKOV0Bb0ya3bEa-6g1-131" value="d58" style="rounded=0;whiteSpace=wrap;html=1;container=0;fillColor=#dae8fc;strokeColor=#6c8ebf;" parent="1" vertex="1">
          <mxGeometry x="1400" y="520" width="40" height="40" as="geometry" />
        </mxCell>
        <mxCell id="yQQKOV0Bb0ya3bEa-6g1-132" value="d59" style="rounded=0;whiteSpace=wrap;html=1;container=0;fillColor=#f8cecc;strokeColor=#b85450;" parent="1" vertex="1">
          <mxGeometry x="1440" y="520" width="40" height="40" as="geometry" />
        </mxCell>
        <mxCell id="yQQKOV0Bb0ya3bEa-6g1-133" value="d60" style="rounded=0;whiteSpace=wrap;html=1;container=0;fillColor=#f8cecc;strokeColor=#b85450;" parent="1" vertex="1">
          <mxGeometry x="1480" y="520" width="40" height="40" as="geometry" />
        </mxCell>
        <mxCell id="yQQKOV0Bb0ya3bEa-6g1-134" value="d61" style="rounded=0;whiteSpace=wrap;html=1;container=0;fillColor=#f8cecc;strokeColor=#b85450;" parent="1" vertex="1">
          <mxGeometry x="1520" y="520" width="40" height="40" as="geometry" />
        </mxCell>
        <mxCell id="yQQKOV0Bb0ya3bEa-6g1-135" value="d62" style="rounded=0;whiteSpace=wrap;html=1;container=0;fillColor=#f8cecc;strokeColor=#b85450;" parent="1" vertex="1">
          <mxGeometry x="1560" y="520" width="40" height="40" as="geometry" />
        </mxCell>
        <mxCell id="yQQKOV0Bb0ya3bEa-6g1-136" value="d63" style="rounded=0;whiteSpace=wrap;html=1;container=0;fillColor=#f8cecc;strokeColor=#b85450;" parent="1" vertex="1">
          <mxGeometry x="1600" y="520" width="40" height="40" as="geometry" />
        </mxCell>
        <mxCell id="yQQKOV0Bb0ya3bEa-6g1-137" value="d64" style="rounded=0;whiteSpace=wrap;html=1;container=0;fillColor=#f8cecc;strokeColor=#b85450;" parent="1" vertex="1">
          <mxGeometry x="1640" y="520" width="40" height="40" as="geometry" />
        </mxCell>
        <mxCell id="yQQKOV0Bb0ya3bEa-6g1-138" value="d65" style="rounded=0;whiteSpace=wrap;html=1;container=0;fillColor=#f5f5f5;fontColor=#333333;strokeColor=#666666;" parent="1" vertex="1">
          <mxGeometry x="1160" y="560" width="40" height="40" as="geometry" />
        </mxCell>
        <mxCell id="yQQKOV0Bb0ya3bEa-6g1-139" value="d66" style="rounded=0;whiteSpace=wrap;html=1;container=0;fillColor=#f5f5f5;fontColor=#333333;strokeColor=#666666;" parent="1" vertex="1">
          <mxGeometry x="1200" y="560" width="40" height="40" as="geometry" />
        </mxCell>
        <mxCell id="yQQKOV0Bb0ya3bEa-6g1-140" value="d67" style="rounded=0;whiteSpace=wrap;html=1;container=0;fillColor=#f5f5f5;fontColor=#333333;strokeColor=#666666;" parent="1" vertex="1">
          <mxGeometry x="1240" y="560" width="40" height="40" as="geometry" />
        </mxCell>
        <mxCell id="yQQKOV0Bb0ya3bEa-6g1-141" value="d68" style="rounded=0;whiteSpace=wrap;html=1;container=0;fillColor=#f5f5f5;fontColor=#333333;strokeColor=#666666;" parent="1" vertex="1">
          <mxGeometry x="1280" y="560" width="40" height="40" as="geometry" />
        </mxCell>
        <mxCell id="yQQKOV0Bb0ya3bEa-6g1-142" value="d69" style="rounded=0;whiteSpace=wrap;html=1;container=0;fillColor=#f5f5f5;fontColor=#333333;strokeColor=#666666;" parent="1" vertex="1">
          <mxGeometry x="1320" y="560" width="40" height="40" as="geometry" />
        </mxCell>
        <mxCell id="yQQKOV0Bb0ya3bEa-6g1-143" value="d70" style="rounded=0;whiteSpace=wrap;html=1;container=0;fillColor=#f5f5f5;fontColor=#333333;strokeColor=#666666;" parent="1" vertex="1">
          <mxGeometry x="1360" y="560" width="40" height="40" as="geometry" />
        </mxCell>
        <mxCell id="yQQKOV0Bb0ya3bEa-6g1-144" value="d71" style="rounded=0;whiteSpace=wrap;html=1;container=0;fillColor=#dae8fc;strokeColor=#6c8ebf;" parent="1" vertex="1">
          <mxGeometry x="1400" y="560" width="40" height="40" as="geometry" />
        </mxCell>
        <mxCell id="yQQKOV0Bb0ya3bEa-6g1-145" value="d72" style="rounded=0;whiteSpace=wrap;html=1;container=0;fillColor=#f8cecc;strokeColor=#b85450;" parent="1" vertex="1">
          <mxGeometry x="1440" y="560" width="40" height="40" as="geometry" />
        </mxCell>
        <mxCell id="yQQKOV0Bb0ya3bEa-6g1-146" value="d73" style="rounded=0;whiteSpace=wrap;html=1;container=0;fillColor=#f8cecc;strokeColor=#b85450;" parent="1" vertex="1">
          <mxGeometry x="1480" y="560" width="40" height="40" as="geometry" />
        </mxCell>
        <mxCell id="yQQKOV0Bb0ya3bEa-6g1-147" value="d74" style="rounded=0;whiteSpace=wrap;html=1;container=0;fillColor=#f8cecc;strokeColor=#b85450;" parent="1" vertex="1">
          <mxGeometry x="1520" y="560" width="40" height="40" as="geometry" />
        </mxCell>
        <mxCell id="yQQKOV0Bb0ya3bEa-6g1-148" value="d75" style="rounded=0;whiteSpace=wrap;html=1;container=0;fillColor=#f8cecc;strokeColor=#b85450;" parent="1" vertex="1">
          <mxGeometry x="1560" y="560" width="40" height="40" as="geometry" />
        </mxCell>
        <mxCell id="yQQKOV0Bb0ya3bEa-6g1-149" value="d76" style="rounded=0;whiteSpace=wrap;html=1;container=0;fillColor=#f8cecc;strokeColor=#b85450;" parent="1" vertex="1">
          <mxGeometry x="1600" y="560" width="40" height="40" as="geometry" />
        </mxCell>
        <mxCell id="yQQKOV0Bb0ya3bEa-6g1-150" value="d77" style="rounded=0;whiteSpace=wrap;html=1;container=0;fillColor=#f8cecc;strokeColor=#b85450;" parent="1" vertex="1">
          <mxGeometry x="1640" y="560" width="40" height="40" as="geometry" />
        </mxCell>
        <mxCell id="yQQKOV0Bb0ya3bEa-6g1-151" value="d78" style="rounded=0;whiteSpace=wrap;html=1;container=0;fillColor=#fff2cc;strokeColor=#d6b656;" parent="1" vertex="1">
          <mxGeometry x="1160" y="600" width="40" height="40" as="geometry" />
        </mxCell>
        <mxCell id="yQQKOV0Bb0ya3bEa-6g1-152" value="d79" style="rounded=0;whiteSpace=wrap;html=1;container=0;fillColor=#dae8fc;strokeColor=#6c8ebf;" parent="1" vertex="1">
          <mxGeometry x="1200" y="600" width="40" height="40" as="geometry" />
        </mxCell>
        <mxCell id="yQQKOV0Bb0ya3bEa-6g1-153" value="d80" style="rounded=0;whiteSpace=wrap;html=1;container=0;fillColor=#dae8fc;strokeColor=#6c8ebf;" parent="1" vertex="1">
          <mxGeometry x="1240" y="600" width="40" height="40" as="geometry" />
        </mxCell>
        <mxCell id="yQQKOV0Bb0ya3bEa-6g1-154" value="d81" style="rounded=0;whiteSpace=wrap;html=1;container=0;fillColor=#dae8fc;strokeColor=#6c8ebf;" parent="1" vertex="1">
          <mxGeometry x="1280" y="600" width="40" height="40" as="geometry" />
        </mxCell>
        <mxCell id="yQQKOV0Bb0ya3bEa-6g1-155" value="d82" style="rounded=0;whiteSpace=wrap;html=1;container=0;fillColor=#dae8fc;strokeColor=#6c8ebf;" parent="1" vertex="1">
          <mxGeometry x="1320" y="600" width="40" height="40" as="geometry" />
        </mxCell>
        <mxCell id="yQQKOV0Bb0ya3bEa-6g1-156" value="d83" style="rounded=0;whiteSpace=wrap;html=1;container=0;fillColor=#dae8fc;strokeColor=#6c8ebf;" parent="1" vertex="1">
          <mxGeometry x="1360" y="600" width="40" height="40" as="geometry" />
        </mxCell>
        <mxCell id="yQQKOV0Bb0ya3bEa-6g1-157" value="d84" style="rounded=0;whiteSpace=wrap;html=1;container=0;fillColor=#fff2cc;strokeColor=#d6b656;" parent="1" vertex="1">
          <mxGeometry x="1400" y="600" width="40" height="40" as="geometry" />
        </mxCell>
        <mxCell id="yQQKOV0Bb0ya3bEa-6g1-158" value="d85" style="rounded=0;whiteSpace=wrap;html=1;container=0;fillColor=#dae8fc;strokeColor=#6c8ebf;" parent="1" vertex="1">
          <mxGeometry x="1440" y="600" width="40" height="40" as="geometry" />
        </mxCell>
        <mxCell id="yQQKOV0Bb0ya3bEa-6g1-159" value="d86" style="rounded=0;whiteSpace=wrap;html=1;container=0;fillColor=#dae8fc;strokeColor=#6c8ebf;" parent="1" vertex="1">
          <mxGeometry x="1480" y="600" width="40" height="40" as="geometry" />
        </mxCell>
        <mxCell id="yQQKOV0Bb0ya3bEa-6g1-160" value="d87" style="rounded=0;whiteSpace=wrap;html=1;container=0;fillColor=#dae8fc;strokeColor=#6c8ebf;" parent="1" vertex="1">
          <mxGeometry x="1520" y="600" width="40" height="40" as="geometry" />
        </mxCell>
        <mxCell id="yQQKOV0Bb0ya3bEa-6g1-161" value="d88" style="rounded=0;whiteSpace=wrap;html=1;container=0;fillColor=#dae8fc;strokeColor=#6c8ebf;" parent="1" vertex="1">
          <mxGeometry x="1560" y="600" width="40" height="40" as="geometry" />
        </mxCell>
        <mxCell id="yQQKOV0Bb0ya3bEa-6g1-162" value="d89" style="rounded=0;whiteSpace=wrap;html=1;container=0;fillColor=#dae8fc;strokeColor=#6c8ebf;" parent="1" vertex="1">
          <mxGeometry x="1600" y="600" width="40" height="40" as="geometry" />
        </mxCell>
        <mxCell id="yQQKOV0Bb0ya3bEa-6g1-163" value="d90" style="rounded=0;whiteSpace=wrap;html=1;container=0;fillColor=#fff2cc;strokeColor=#d6b656;" parent="1" vertex="1">
          <mxGeometry x="1640" y="600" width="40" height="40" as="geometry" />
        </mxCell>
        <mxCell id="yQQKOV0Bb0ya3bEa-6g1-164" value="d91" style="rounded=0;whiteSpace=wrap;html=1;container=0;" parent="1" vertex="1">
          <mxGeometry x="1160" y="640" width="40" height="40" as="geometry" />
        </mxCell>
        <mxCell id="yQQKOV0Bb0ya3bEa-6g1-165" value="d92" style="rounded=0;whiteSpace=wrap;html=1;container=0;" parent="1" vertex="1">
          <mxGeometry x="1200" y="640" width="40" height="40" as="geometry" />
        </mxCell>
        <mxCell id="yQQKOV0Bb0ya3bEa-6g1-166" value="d93" style="rounded=0;whiteSpace=wrap;html=1;container=0;" parent="1" vertex="1">
          <mxGeometry x="1240" y="640" width="40" height="40" as="geometry" />
        </mxCell>
        <mxCell id="yQQKOV0Bb0ya3bEa-6g1-167" value="d94" style="rounded=0;whiteSpace=wrap;html=1;container=0;" parent="1" vertex="1">
          <mxGeometry x="1280" y="640" width="40" height="40" as="geometry" />
        </mxCell>
        <mxCell id="yQQKOV0Bb0ya3bEa-6g1-168" value="d95" style="rounded=0;whiteSpace=wrap;html=1;container=0;" parent="1" vertex="1">
          <mxGeometry x="1320" y="640" width="40" height="40" as="geometry" />
        </mxCell>
        <mxCell id="yQQKOV0Bb0ya3bEa-6g1-169" value="d96" style="rounded=0;whiteSpace=wrap;html=1;container=0;" parent="1" vertex="1">
          <mxGeometry x="1360" y="640" width="40" height="40" as="geometry" />
        </mxCell>
        <mxCell id="yQQKOV0Bb0ya3bEa-6g1-170" value="d97" style="rounded=0;whiteSpace=wrap;html=1;container=0;fillColor=#dae8fc;strokeColor=#6c8ebf;" parent="1" vertex="1">
          <mxGeometry x="1400" y="640" width="40" height="40" as="geometry" />
        </mxCell>
        <mxCell id="yQQKOV0Bb0ya3bEa-6g1-171" value="d98" style="rounded=0;whiteSpace=wrap;html=1;container=0;fillColor=#e1d5e7;strokeColor=#9673a6;" parent="1" vertex="1">
          <mxGeometry x="1440" y="640" width="40" height="40" as="geometry" />
        </mxCell>
        <mxCell id="yQQKOV0Bb0ya3bEa-6g1-172" value="d99" style="rounded=0;whiteSpace=wrap;html=1;container=0;fillColor=#e1d5e7;strokeColor=#9673a6;" parent="1" vertex="1">
          <mxGeometry x="1480" y="640" width="40" height="40" as="geometry" />
        </mxCell>
        <mxCell id="yQQKOV0Bb0ya3bEa-6g1-173" value="d100" style="rounded=0;whiteSpace=wrap;html=1;container=0;fillColor=#e1d5e7;strokeColor=#9673a6;" parent="1" vertex="1">
          <mxGeometry x="1520" y="640" width="40" height="40" as="geometry" />
        </mxCell>
        <mxCell id="yQQKOV0Bb0ya3bEa-6g1-174" value="d101" style="rounded=0;whiteSpace=wrap;html=1;container=0;fillColor=#e1d5e7;strokeColor=#9673a6;" parent="1" vertex="1">
          <mxGeometry x="1560" y="640" width="40" height="40" as="geometry" />
        </mxCell>
        <mxCell id="yQQKOV0Bb0ya3bEa-6g1-175" value="d102" style="rounded=0;whiteSpace=wrap;html=1;container=0;fillColor=#e1d5e7;strokeColor=#9673a6;" parent="1" vertex="1">
          <mxGeometry x="1600" y="640" width="40" height="40" as="geometry" />
        </mxCell>
        <mxCell id="yQQKOV0Bb0ya3bEa-6g1-176" value="d103" style="rounded=0;whiteSpace=wrap;html=1;container=0;fillColor=#e1d5e7;strokeColor=#9673a6;" parent="1" vertex="1">
          <mxGeometry x="1640" y="640" width="40" height="40" as="geometry" />
        </mxCell>
        <mxCell id="yQQKOV0Bb0ya3bEa-6g1-177" value="d104" style="rounded=0;whiteSpace=wrap;html=1;container=0;" parent="1" vertex="1">
          <mxGeometry x="1160" y="680" width="40" height="40" as="geometry" />
        </mxCell>
        <mxCell id="yQQKOV0Bb0ya3bEa-6g1-178" value="d105" style="rounded=0;whiteSpace=wrap;html=1;container=0;" parent="1" vertex="1">
          <mxGeometry x="1200" y="680" width="40" height="40" as="geometry" />
        </mxCell>
        <mxCell id="yQQKOV0Bb0ya3bEa-6g1-179" value="d106" style="rounded=0;whiteSpace=wrap;html=1;container=0;" parent="1" vertex="1">
          <mxGeometry x="1240" y="680" width="40" height="40" as="geometry" />
        </mxCell>
        <mxCell id="yQQKOV0Bb0ya3bEa-6g1-180" value="d107" style="rounded=0;whiteSpace=wrap;html=1;container=0;" parent="1" vertex="1">
          <mxGeometry x="1280" y="680" width="40" height="40" as="geometry" />
        </mxCell>
        <mxCell id="yQQKOV0Bb0ya3bEa-6g1-181" value="d108" style="rounded=0;whiteSpace=wrap;html=1;container=0;" parent="1" vertex="1">
          <mxGeometry x="1320" y="680" width="40" height="40" as="geometry" />
        </mxCell>
        <mxCell id="yQQKOV0Bb0ya3bEa-6g1-182" value="d109" style="rounded=0;whiteSpace=wrap;html=1;container=0;" parent="1" vertex="1">
          <mxGeometry x="1360" y="680" width="40" height="40" as="geometry" />
        </mxCell>
        <mxCell id="yQQKOV0Bb0ya3bEa-6g1-183" value="d110" style="rounded=0;whiteSpace=wrap;html=1;container=0;fillColor=#dae8fc;strokeColor=#6c8ebf;" parent="1" vertex="1">
          <mxGeometry x="1400" y="680" width="40" height="40" as="geometry" />
        </mxCell>
        <mxCell id="yQQKOV0Bb0ya3bEa-6g1-184" value="d111" style="rounded=0;whiteSpace=wrap;html=1;container=0;fillColor=#e1d5e7;strokeColor=#9673a6;" parent="1" vertex="1">
          <mxGeometry x="1440" y="680" width="40" height="40" as="geometry" />
        </mxCell>
        <mxCell id="yQQKOV0Bb0ya3bEa-6g1-185" value="d112" style="rounded=0;whiteSpace=wrap;html=1;container=0;fillColor=#e1d5e7;strokeColor=#9673a6;" parent="1" vertex="1">
          <mxGeometry x="1480" y="680" width="40" height="40" as="geometry" />
        </mxCell>
        <mxCell id="yQQKOV0Bb0ya3bEa-6g1-186" value="d113" style="rounded=0;whiteSpace=wrap;html=1;container=0;fillColor=#e1d5e7;strokeColor=#9673a6;" parent="1" vertex="1">
          <mxGeometry x="1520" y="680" width="40" height="40" as="geometry" />
        </mxCell>
        <mxCell id="yQQKOV0Bb0ya3bEa-6g1-187" value="d114" style="rounded=0;whiteSpace=wrap;html=1;container=0;fillColor=#e1d5e7;strokeColor=#9673a6;" parent="1" vertex="1">
          <mxGeometry x="1560" y="680" width="40" height="40" as="geometry" />
        </mxCell>
        <mxCell id="yQQKOV0Bb0ya3bEa-6g1-188" value="d115" style="rounded=0;whiteSpace=wrap;html=1;container=0;fillColor=#e1d5e7;strokeColor=#9673a6;" parent="1" vertex="1">
          <mxGeometry x="1600" y="680" width="40" height="40" as="geometry" />
        </mxCell>
        <mxCell id="yQQKOV0Bb0ya3bEa-6g1-189" value="d116" style="rounded=0;whiteSpace=wrap;html=1;container=0;fillColor=#e1d5e7;strokeColor=#9673a6;" parent="1" vertex="1">
          <mxGeometry x="1640" y="680" width="40" height="40" as="geometry" />
        </mxCell>
        <mxCell id="e5YA3P9Z0bcGLxXbxTCC-2" value="d117" style="rounded=0;whiteSpace=wrap;html=1;container=0;" parent="1" vertex="1">
          <mxGeometry x="1160" y="720" width="40" height="40" as="geometry" />
        </mxCell>
        <mxCell id="e5YA3P9Z0bcGLxXbxTCC-3" value="d118" style="rounded=0;whiteSpace=wrap;html=1;container=0;" parent="1" vertex="1">
          <mxGeometry x="1200" y="720" width="40" height="40" as="geometry" />
        </mxCell>
        <mxCell id="e5YA3P9Z0bcGLxXbxTCC-4" value="d119" style="rounded=0;whiteSpace=wrap;html=1;container=0;" parent="1" vertex="1">
          <mxGeometry x="1240" y="720" width="40" height="40" as="geometry" />
        </mxCell>
        <mxCell id="e5YA3P9Z0bcGLxXbxTCC-5" value="d120" style="rounded=0;whiteSpace=wrap;html=1;container=0;" parent="1" vertex="1">
          <mxGeometry x="1280" y="720" width="40" height="40" as="geometry" />
        </mxCell>
        <mxCell id="e5YA3P9Z0bcGLxXbxTCC-6" value="d121" style="rounded=0;whiteSpace=wrap;html=1;container=0;" parent="1" vertex="1">
          <mxGeometry x="1320" y="720" width="40" height="40" as="geometry" />
        </mxCell>
        <mxCell id="e5YA3P9Z0bcGLxXbxTCC-7" value="d122" style="rounded=0;whiteSpace=wrap;html=1;container=0;" parent="1" vertex="1">
          <mxGeometry x="1360" y="720" width="40" height="40" as="geometry" />
        </mxCell>
        <mxCell id="e5YA3P9Z0bcGLxXbxTCC-8" value="d123" style="rounded=0;whiteSpace=wrap;html=1;container=0;fillColor=#dae8fc;strokeColor=#6c8ebf;" parent="1" vertex="1">
          <mxGeometry x="1400" y="720" width="40" height="40" as="geometry" />
        </mxCell>
        <mxCell id="e5YA3P9Z0bcGLxXbxTCC-9" value="d124" style="rounded=0;whiteSpace=wrap;html=1;container=0;fillColor=#e1d5e7;strokeColor=#9673a6;" parent="1" vertex="1">
          <mxGeometry x="1440" y="720" width="40" height="40" as="geometry" />
        </mxCell>
        <mxCell id="e5YA3P9Z0bcGLxXbxTCC-10" value="d125" style="rounded=0;whiteSpace=wrap;html=1;container=0;fillColor=#e1d5e7;strokeColor=#9673a6;" parent="1" vertex="1">
          <mxGeometry x="1480" y="720" width="40" height="40" as="geometry" />
        </mxCell>
        <mxCell id="e5YA3P9Z0bcGLxXbxTCC-11" value="d126" style="rounded=0;whiteSpace=wrap;html=1;container=0;fillColor=#e1d5e7;strokeColor=#9673a6;" parent="1" vertex="1">
          <mxGeometry x="1520" y="720" width="40" height="40" as="geometry" />
        </mxCell>
        <mxCell id="e5YA3P9Z0bcGLxXbxTCC-12" value="d127" style="rounded=0;whiteSpace=wrap;html=1;container=0;fillColor=#e1d5e7;strokeColor=#9673a6;" parent="1" vertex="1">
          <mxGeometry x="1560" y="720" width="40" height="40" as="geometry" />
        </mxCell>
        <mxCell id="e5YA3P9Z0bcGLxXbxTCC-13" value="d128" style="rounded=0;whiteSpace=wrap;html=1;container=0;fillColor=#e1d5e7;strokeColor=#9673a6;" parent="1" vertex="1">
          <mxGeometry x="1600" y="720" width="40" height="40" as="geometry" />
        </mxCell>
        <mxCell id="e5YA3P9Z0bcGLxXbxTCC-14" value="d129" style="rounded=0;whiteSpace=wrap;html=1;container=0;fillColor=#e1d5e7;strokeColor=#9673a6;" parent="1" vertex="1">
          <mxGeometry x="1640" y="720" width="40" height="40" as="geometry" />
        </mxCell>
        <mxCell id="e5YA3P9Z0bcGLxXbxTCC-15" value="d130" style="rounded=0;whiteSpace=wrap;html=1;container=0;" parent="1" vertex="1">
          <mxGeometry x="1160" y="760" width="40" height="40" as="geometry" />
        </mxCell>
        <mxCell id="e5YA3P9Z0bcGLxXbxTCC-16" value="d131" style="rounded=0;whiteSpace=wrap;html=1;container=0;" parent="1" vertex="1">
          <mxGeometry x="1200" y="760" width="40" height="40" as="geometry" />
        </mxCell>
        <mxCell id="e5YA3P9Z0bcGLxXbxTCC-17" value="d132" style="rounded=0;whiteSpace=wrap;html=1;container=0;" parent="1" vertex="1">
          <mxGeometry x="1240" y="760" width="40" height="40" as="geometry" />
        </mxCell>
        <mxCell id="e5YA3P9Z0bcGLxXbxTCC-18" value="d133" style="rounded=0;whiteSpace=wrap;html=1;container=0;" parent="1" vertex="1">
          <mxGeometry x="1280" y="760" width="40" height="40" as="geometry" />
        </mxCell>
        <mxCell id="e5YA3P9Z0bcGLxXbxTCC-19" value="d134" style="rounded=0;whiteSpace=wrap;html=1;container=0;" parent="1" vertex="1">
          <mxGeometry x="1320" y="760" width="40" height="40" as="geometry" />
        </mxCell>
        <mxCell id="e5YA3P9Z0bcGLxXbxTCC-20" value="d135" style="rounded=0;whiteSpace=wrap;html=1;container=0;" parent="1" vertex="1">
          <mxGeometry x="1360" y="760" width="40" height="40" as="geometry" />
        </mxCell>
        <mxCell id="e5YA3P9Z0bcGLxXbxTCC-21" value="d136" style="rounded=0;whiteSpace=wrap;html=1;container=0;fillColor=#dae8fc;strokeColor=#6c8ebf;" parent="1" vertex="1">
          <mxGeometry x="1400" y="760" width="40" height="40" as="geometry" />
        </mxCell>
        <mxCell id="e5YA3P9Z0bcGLxXbxTCC-22" value="d137" style="rounded=0;whiteSpace=wrap;html=1;container=0;fillColor=#e1d5e7;strokeColor=#9673a6;" parent="1" vertex="1">
          <mxGeometry x="1440" y="760" width="40" height="40" as="geometry" />
        </mxCell>
        <mxCell id="e5YA3P9Z0bcGLxXbxTCC-23" value="d138" style="rounded=0;whiteSpace=wrap;html=1;container=0;fillColor=#e1d5e7;strokeColor=#9673a6;" parent="1" vertex="1">
          <mxGeometry x="1480" y="760" width="40" height="40" as="geometry" />
        </mxCell>
        <mxCell id="e5YA3P9Z0bcGLxXbxTCC-24" value="d139" style="rounded=0;whiteSpace=wrap;html=1;container=0;fillColor=#e1d5e7;strokeColor=#9673a6;" parent="1" vertex="1">
          <mxGeometry x="1520" y="760" width="40" height="40" as="geometry" />
        </mxCell>
        <mxCell id="e5YA3P9Z0bcGLxXbxTCC-25" value="d140" style="rounded=0;whiteSpace=wrap;html=1;container=0;fillColor=#e1d5e7;strokeColor=#9673a6;" parent="1" vertex="1">
          <mxGeometry x="1560" y="760" width="40" height="40" as="geometry" />
        </mxCell>
        <mxCell id="e5YA3P9Z0bcGLxXbxTCC-26" value="d141" style="rounded=0;whiteSpace=wrap;html=1;container=0;fillColor=#e1d5e7;strokeColor=#9673a6;" parent="1" vertex="1">
          <mxGeometry x="1600" y="760" width="40" height="40" as="geometry" />
        </mxCell>
        <mxCell id="e5YA3P9Z0bcGLxXbxTCC-27" value="d142" style="rounded=0;whiteSpace=wrap;html=1;container=0;fillColor=#e1d5e7;strokeColor=#9673a6;" parent="1" vertex="1">
          <mxGeometry x="1640" y="760" width="40" height="40" as="geometry" />
        </mxCell>
        <mxCell id="e5YA3P9Z0bcGLxXbxTCC-28" value="d143" style="rounded=0;whiteSpace=wrap;html=1;container=0;" parent="1" vertex="1">
          <mxGeometry x="1160" y="800" width="40" height="40" as="geometry" />
        </mxCell>
        <mxCell id="e5YA3P9Z0bcGLxXbxTCC-29" value="d144" style="rounded=0;whiteSpace=wrap;html=1;container=0;" parent="1" vertex="1">
          <mxGeometry x="1200" y="800" width="40" height="40" as="geometry" />
        </mxCell>
        <mxCell id="e5YA3P9Z0bcGLxXbxTCC-30" value="d145" style="rounded=0;whiteSpace=wrap;html=1;container=0;" parent="1" vertex="1">
          <mxGeometry x="1240" y="800" width="40" height="40" as="geometry" />
        </mxCell>
        <mxCell id="e5YA3P9Z0bcGLxXbxTCC-31" value="d146" style="rounded=0;whiteSpace=wrap;html=1;container=0;" parent="1" vertex="1">
          <mxGeometry x="1280" y="800" width="40" height="40" as="geometry" />
        </mxCell>
        <mxCell id="e5YA3P9Z0bcGLxXbxTCC-32" value="d147" style="rounded=0;whiteSpace=wrap;html=1;container=0;" parent="1" vertex="1">
          <mxGeometry x="1320" y="800" width="40" height="40" as="geometry" />
        </mxCell>
        <mxCell id="e5YA3P9Z0bcGLxXbxTCC-33" value="d148" style="rounded=0;whiteSpace=wrap;html=1;container=0;" parent="1" vertex="1">
          <mxGeometry x="1360" y="800" width="40" height="40" as="geometry" />
        </mxCell>
        <mxCell id="e5YA3P9Z0bcGLxXbxTCC-34" value="d149" style="rounded=0;whiteSpace=wrap;html=1;container=0;fillColor=#dae8fc;strokeColor=#6c8ebf;" parent="1" vertex="1">
          <mxGeometry x="1400" y="800" width="40" height="40" as="geometry" />
        </mxCell>
        <mxCell id="e5YA3P9Z0bcGLxXbxTCC-35" value="d150" style="rounded=0;whiteSpace=wrap;html=1;container=0;fillColor=#e1d5e7;strokeColor=#9673a6;" parent="1" vertex="1">
          <mxGeometry x="1440" y="800" width="40" height="40" as="geometry" />
        </mxCell>
        <mxCell id="e5YA3P9Z0bcGLxXbxTCC-36" value="d151" style="rounded=0;whiteSpace=wrap;html=1;container=0;fillColor=#e1d5e7;strokeColor=#9673a6;" parent="1" vertex="1">
          <mxGeometry x="1480" y="800" width="40" height="40" as="geometry" />
        </mxCell>
        <mxCell id="e5YA3P9Z0bcGLxXbxTCC-37" value="d152" style="rounded=0;whiteSpace=wrap;html=1;container=0;fillColor=#e1d5e7;strokeColor=#9673a6;" parent="1" vertex="1">
          <mxGeometry x="1520" y="800" width="40" height="40" as="geometry" />
        </mxCell>
        <mxCell id="e5YA3P9Z0bcGLxXbxTCC-38" value="d153" style="rounded=0;whiteSpace=wrap;html=1;container=0;fillColor=#e1d5e7;strokeColor=#9673a6;" parent="1" vertex="1">
          <mxGeometry x="1560" y="800" width="40" height="40" as="geometry" />
        </mxCell>
        <mxCell id="e5YA3P9Z0bcGLxXbxTCC-39" value="d154" style="rounded=0;whiteSpace=wrap;html=1;container=0;fillColor=#e1d5e7;strokeColor=#9673a6;" parent="1" vertex="1">
          <mxGeometry x="1600" y="800" width="40" height="40" as="geometry" />
        </mxCell>
        <mxCell id="e5YA3P9Z0bcGLxXbxTCC-40" value="d155" style="rounded=0;whiteSpace=wrap;html=1;container=0;fillColor=#e1d5e7;strokeColor=#9673a6;" parent="1" vertex="1">
          <mxGeometry x="1640" y="800" width="40" height="40" as="geometry" />
        </mxCell>
        <mxCell id="e5YA3P9Z0bcGLxXbxTCC-41" value="d156" style="rounded=0;whiteSpace=wrap;html=1;container=0;" parent="1" vertex="1">
          <mxGeometry x="1160" y="840" width="40" height="40" as="geometry" />
        </mxCell>
        <mxCell id="e5YA3P9Z0bcGLxXbxTCC-42" value="d157" style="rounded=0;whiteSpace=wrap;html=1;container=0;" parent="1" vertex="1">
          <mxGeometry x="1200" y="840" width="40" height="40" as="geometry" />
        </mxCell>
        <mxCell id="e5YA3P9Z0bcGLxXbxTCC-43" value="d158" style="rounded=0;whiteSpace=wrap;html=1;container=0;" parent="1" vertex="1">
          <mxGeometry x="1240" y="840" width="40" height="40" as="geometry" />
        </mxCell>
        <mxCell id="e5YA3P9Z0bcGLxXbxTCC-44" value="d159" style="rounded=0;whiteSpace=wrap;html=1;container=0;" parent="1" vertex="1">
          <mxGeometry x="1280" y="840" width="40" height="40" as="geometry" />
        </mxCell>
        <mxCell id="e5YA3P9Z0bcGLxXbxTCC-45" value="d160" style="rounded=0;whiteSpace=wrap;html=1;container=0;" parent="1" vertex="1">
          <mxGeometry x="1320" y="840" width="40" height="40" as="geometry" />
        </mxCell>
        <mxCell id="e5YA3P9Z0bcGLxXbxTCC-46" value="d161" style="rounded=0;whiteSpace=wrap;html=1;container=0;" parent="1" vertex="1">
          <mxGeometry x="1360" y="840" width="40" height="40" as="geometry" />
        </mxCell>
        <mxCell id="e5YA3P9Z0bcGLxXbxTCC-47" value="d162" style="rounded=0;whiteSpace=wrap;html=1;container=0;fillColor=#fff2cc;strokeColor=#d6b656;" parent="1" vertex="1">
          <mxGeometry x="1400" y="840" width="40" height="40" as="geometry" />
        </mxCell>
        <mxCell id="e5YA3P9Z0bcGLxXbxTCC-48" value="d163" style="rounded=0;whiteSpace=wrap;html=1;container=0;fillColor=#e1d5e7;strokeColor=#9673a6;" parent="1" vertex="1">
          <mxGeometry x="1440" y="840" width="40" height="40" as="geometry" />
        </mxCell>
        <mxCell id="e5YA3P9Z0bcGLxXbxTCC-49" value="d164" style="rounded=0;whiteSpace=wrap;html=1;container=0;fillColor=#e1d5e7;strokeColor=#9673a6;" parent="1" vertex="1">
          <mxGeometry x="1480" y="840" width="40" height="40" as="geometry" />
        </mxCell>
        <mxCell id="e5YA3P9Z0bcGLxXbxTCC-50" value="d165" style="rounded=0;whiteSpace=wrap;html=1;container=0;fillColor=#e1d5e7;strokeColor=#9673a6;" parent="1" vertex="1">
          <mxGeometry x="1520" y="840" width="40" height="40" as="geometry" />
        </mxCell>
        <mxCell id="e5YA3P9Z0bcGLxXbxTCC-51" value="d166" style="rounded=0;whiteSpace=wrap;html=1;container=0;fillColor=#e1d5e7;strokeColor=#9673a6;" parent="1" vertex="1">
          <mxGeometry x="1560" y="840" width="40" height="40" as="geometry" />
        </mxCell>
        <mxCell id="e5YA3P9Z0bcGLxXbxTCC-52" value="d167" style="rounded=0;whiteSpace=wrap;html=1;container=0;fillColor=#e1d5e7;strokeColor=#9673a6;" parent="1" vertex="1">
          <mxGeometry x="1600" y="840" width="40" height="40" as="geometry" />
        </mxCell>
        <mxCell id="e5YA3P9Z0bcGLxXbxTCC-53" value="d168" style="rounded=0;whiteSpace=wrap;html=1;container=0;fillColor=#e1d5e7;strokeColor=#9673a6;" parent="1" vertex="1">
          <mxGeometry x="1640" y="840" width="40" height="40" as="geometry" />
        </mxCell>
      </root>
    </mxGraphModel>
  </diagram>
</mxfile>
